<svg xmlns="http://www.w3.org/2000/svg" viewBox="0 0 32 32"><path fill-rule="evenodd" d="M9.95 22.48c.08-1.03 1.17-2.45 1.6-3.02.48-.63.78-1.02.78-1.35 0-.34.1-.76.54-1.3.81.54 2.35.66 3.31.66s1.99-.09 2.4-.8c.33.85 1.79 4.1 2.31 5.26a63.7 63.7 0 00-10.95.55m-2.27-.86c.48-.54 1.65-1.71 1.65-1.71s-.24.96-.6 1.65c-.26.5-.02.9.13 1.09-.74.12-1.42.26-2.04.4.21-.58.53-1.06.86-1.43m15.38.43a13.46 13.46 0 01-1.12-4.82c.03-.69.27-1.35.93-1.92.66-.57.63-1.32.63-2.14 0-.8.27-1.8.48-2.2.21-.38.6-1.17 1.44-1.17.85 0 1.39-.33 1.39-.75S25.55 8 25.55 8v-.54c0-.42-.26-.93-.14-1.23.12-.3.27-2.23-.12-2.23s-.8 1.23-1.62 2.14c-.42-.18-1.02-.03-1.02-.03s-.27-.3-.58-.76C21.77 4.9 21.35 4 21.02 4c-.33 0-.48.63-.48 1.05 0 .42.27 1.57.87 2.38l-2.97 2.65c-1.03.9-1.54 1.14-3.28 1.29-1.75.15-2.98.27-5.9 1.44C6.35 14 6.23 17.02 6.23 18c0 .96-.43 1.98-1.12 2.7-.69.72-1.2.87-1.86 1.87C5.4 22.16 6.98 20 6.98 20s-.48.96-.94 1.62c-.33.5-.4 1.33-.41 1.73-4.37 1.2-5.63 2.7-5.63 2.7h32c0-1.41-2.1-3.43-8.95-4"/></svg>